PathFileType	4	(X/Y/Z)	/Users/itak/Documents/Research/Walk-IL/dataset/trc/00086_00006.trc
DataRate	CameraRate	NumFrames	NumMarkers	Units	OrigDataRate	OrigDataStartFrame	OrigNumFrames
100.000000	100.000000	4	53	mm	100.000000	349	559
Frame#	Time	RPSI			LPSI			L3			STRN			T10			C7			CLAV			RBAK			LBAK			LSHO			LUPA			LAEL			LAOL			LWTS			LWPS			LFRA			LIFD			LHPS			LHTS			RSHO			RUPA			RAEL			RAOL			RWTS			RWPS			RFRA			RIFD			RHTS			RHPS			RBHD			LFHD			RFHD			LBHD			LHIP			RHIP			RASI			LASI			LKNE			LTHI			LANK			LTIP			LTOE			LMT1			LMT5			LHEE			RKNE			RTHI			RANK			RTIP			RTOE			RMT1			RMT5			RHEE			
		X1	Y1	Z1	X2	Y2	Z2	X3	Y3	Z3	X4	Y4	Z4	X5	Y5	Z5	X6	Y6	Z6	X7	Y7	Z7	X8	Y8	Z8	X9	Y9	Z9	X10	Y10	Z10	X11	Y11	Z11	X12	Y12	Z12	X13	Y13	Z13	X14	Y14	Z14	X15	Y15	Z15	X16	Y16	Z16	X17	Y17	Z17	X18	Y18	Z18	X19	Y19	Z19	X20	Y20	Z20	X21	Y21	Z21	X22	Y22	Z22	X23	Y23	Z23	X24	Y24	Z24	X25	Y25	Z25	X26	Y26	Z26	X27	Y27	Z27	X28	Y28	Z28	X29	Y29	Z29	X30	Y30	Z30	X31	Y31	Z31	X32	Y32	Z32	X33	Y33	Z33	X34	Y34	Z34	X35	Y35	Z35	X36	Y36	Z36	X37	Y37	Z37	X38	Y38	Z38	X39	Y39	Z39	X40	Y40	Z40	X41	Y41	Z41	X42	Y42	Z42	X43	Y43	Z43	X44	Y44	Z44	X45	Y45	Z45	X46	Y46	Z46	X47	Y47	Z47	X48	Y48	Z48	X49	Y49	Z49	X50	Y50	Z50	X51	Y51	Z51	X52	Y52	Z52	X53	Y53	Z53	

350	3.49	-56.16040802001953	1010.145446777344	221.9456634521484	-164.9772491455078	991.0713500976562	84.55686187744141	-108.6806793212891	1056.314331054688	151.1428070068359	86.43046569824219	1253.3017578125	-8.205142974853516	-118.4282608032227	1190.0732421875	161.1795959472656	-75.03372192382812	1456.894165039062	121.7917175292969	61.79221343994141	1368.573852539062	6.790505409240723	-74.77521514892578	1319.225830078125	221.1902618408203	-158.3393402099609	1419.728271484375	61.47696304321289	-129.0055999755859	1421.44580078125	-61.42465591430664	-202.7638244628906	1297.593627929688	-97.514404296875	-229.9352111816406	1085.3017578125	-106.4978485107422	-207.3732147216797	1076.677001953125	-0.3124192953109741	-159.2721862792969	832.1533813476562	-115.9219665527344	-244.6221618652344	833.7879028320312	-109.4974899291992	-238.5133361816406	975.5941162109375	-118.1229629516602	-167.9289093017578	644.2115478515625	-97.77629089355469	-233.4178619384766	749.2508544921875	-123.2416839599609	-161.7156982421875	745.756103515625	-127.8160552978516	85.85077667236328	1420.805541992188	214.2816619873047	119.7328720092773	1351.9716796875	268.88818359375	145.6767578125	1088.198486328125	313.8713684082031	99.95381164550781	1061.016723632812	228.7203216552734	270.4252014160156	866.9879760742188	168.3078765869141	256.8341064453125	839.1965942382812	249.8851013183594	174.3875122070312	1009.357177734375	306.4865417480469	306.3608703613281	685.174072265625	131.5010375976562	308.3033752441406	775.1610717773438	141.3119354248047	303.263671875	762.2745971679688	217.1471710205078	36.83045196533203	1618.101440429688	158.2899780273438	18.79747772216797	1679.435913085938	-54.40049362182617	120.7483367919922	1673.182373046875	19.31073760986328	-79.49432373046875	1631.541870117188	86.38741302490234	-128.0180969238281	929.673095703125	-50.47539138793945	40.54292297363281	939.71337890625	250.1767425537109	131.5227966308594	948.8261108398438	162.3468017578125	-6.146970748901367	942.109375	-65.94752502441406	88.30170440673828	506.1631469726562	-97.10976409912109	-4.284172058105469	621.9014892578125	-98.43746948242188	129.2041320800781	41.54659271240234	-90.94591522216797	98.07698822021484	258.8828430175781	-102.2991638183594	286.4504699707031	88.53099822998047	-206.4093170166016	283.2925109863281	71.67253875732422	-138.7247772216797	183.7747344970703	54.32549667358398	-182.8708953857422	139.6834259033203	34.56024932861328	-0.02951064892113209	7.844748497009277	498.6011047363281	235.7597503662109	82.50164794921875	760.5004272460938	225.3702087402344	-212.6030578613281	66.50566101074219	354.26708984375	-42.27334594726562	385.9473266601562	272.3894653320312	-54.16680908203125	36.5294303894043	210.1107025146484	-122.370719909668	48.94341278076172	208.6185455322266	-101.5413513183594	43.30603790283203	304.9434814453125	-278.9638671875	86.93621826171875	328.6132507324219	
351	3.5	-47.5659065246582	1010.322692871094	215.3721313476562	-157.2511749267578	991.5260009765625	78.51741790771484	-100.4326629638672	1055.96484375	144.7101593017578	92.82365417480469	1253.8408203125	-15.45784664154053	-110.7313690185547	1189.637084960938	155.2410278320312	-68.52642822265625	1456.703735351562	115.9617767333984	67.82379913330078	1368.998291015625	-0.06649305671453476	-67.31778717041016	1318.861083984375	215.1590881347656	-152.2126007080078	1419.299682617188	56.11297225952148	-123.6831130981445	1421.304565429688	-66.98011016845703	-197.0877990722656	1297.057861328125	-102.7694473266602	-223.0386199951172	1084.573974609375	-111.6213226318359	-199.6074523925781	1076.049560546875	-5.537746906280518	-152.1776428222656	831.4979248046875	-121.439826965332	-237.5668640136719	833.1633911132812	-114.4914245605469	-231.5020751953125	974.9110717773438	-123.1492385864258	-160.7859497070312	643.5372314453125	-103.2215805053711	-226.3848876953125	748.5968627929688	-128.2817840576172	-154.6935882568359	745.0741577148438	-133.2955017089844	92.9913330078125	1420.908203125	207.4050903320312	127.1559295654297	1351.93896484375	261.6708374023438	152.538330078125	1088.33544921875	306.4743347167969	106.9162063598633	1061.548828125	221.1984100341797	276.3595581054688	866.4346313476562	161.2697448730469	262.7732238769531	838.8743896484375	242.9282073974609	181.0103149414062	1009.371215820312	299.2336120605469	311.7176818847656	684.4736938476562	124.7769393920898	313.9532165527344	774.4747314453125	134.4229583740234	308.9123229980469	761.7227172851562	210.2789459228516	42.94771194458008	1618.26318359375	152.1395111083984	24.21687126159668	1679.884643554688	-60.40918731689453	126.3977355957031	1673.584106445312	12.97973155975342	-73.58189392089844	1631.734252929688	80.61700439453125	-120.823860168457	929.97314453125	-56.58623123168945	49.06489181518555	939.6741333007812	243.1655120849609	139.5668640136719	948.7724609375	154.7765655517578	0.8757098913192749	942.4130859375	-72.80489349365234	95.66998291015625	506.1076049804688	-102.1463088989258	3.606072902679443	622.2988891601562	-103.9410171508789	130.5308685302734	41.32201766967773	-91.47727966308594	103.2790603637695	258.0701904296875	-105.6241912841797	289.7271728515625	82.07449340820312	-207.4930419921875	285.7337036132812	66.6441650390625	-139.48046875	185.7292327880859	51.62808609008789	-183.4662780761719	140.7463073730469	35.25164413452148	-0.4409052133560181	16.52135848999023	498.2115478515625	229.1347503662109	90.67668914794922	760.2301025390625	218.1687927246094	-210.6507720947266	70.64904022216797	354.214111328125	-34.86190032958984	386.4371032714844	267.6278686523438	-54.44143295288086	36.52242279052734	210.1620788574219	-121.7933120727539	49.50286483764648	208.5600433349609	-100.5888595581055	43.71932983398438	304.7763977050781	-276.327392578125	92.77336883544922	328.2734069824219	
352	3.51	-38.97530746459961	1010.679931640625	208.7413024902344	-149.5778350830078	992.1983642578125	72.42890930175781	-92.18544769287109	1055.844116210938	138.2022705078125	99.21237182617188	1254.60546875	-22.76030158996582	-103.0612258911133	1189.411987304688	149.2374114990234	-62.02903747558594	1456.712646484375	110.0548629760742	73.84995269775391	1369.64111328125	-6.961268424987793	-59.89363479614258	1318.70703125	209.0355072021484	-146.0565948486328	1419.0849609375	50.64837646484375	-118.3299255371094	1421.39453125	-72.61005401611328	-191.3624267578125	1296.770263671875	-108.1635894775391	-216.0450439453125	1084.091430664062	-116.9103088378906	-191.7374267578125	1075.609497070312	-10.95803737640381	-144.8655700683594	831.1115112304688	-127.1689987182617	-230.29736328125	832.7694091796875	-119.7032470703125	-224.341796875	974.4649047851562	-128.3680877685547	-153.3159332275391	643.129150390625	-108.8993911743164	-219.0794677734375	748.1749267578125	-133.5403289794922	-147.4083862304688	744.6680297851562	-138.9965209960938	100.0945129394531	1421.248779296875	200.48095703125	134.5174102783203	1352.153564453125	254.4225769042969	159.1997528076172	1088.717407226562	299.0477294921875	113.6990585327148	1062.306762695312	213.6394653320312	282.0137634277344	865.9821166992188	154.3657379150391	268.3515319824219	838.702880859375	236.1008758544922	187.3806915283203	1009.618225097656	291.98828125	316.6701354980469	683.8388671875	118.284049987793	319.2528076171875	773.8505859375	127.7302017211914	314.1519165039062	761.2637939453125	203.6086883544922	49.02679443359375	1618.617309570312	145.9497680664062	29.60473823547363	1680.541259765625	-66.44863891601562	132.0061950683594	1674.19482421875	6.620676040649414	-67.70236968994141	1632.115356445312	74.80313110351562	-113.7014999389648	930.5161743164062	-62.77690124511719	57.59131240844727	939.7651977539062	236.0436248779297	147.5632934570312	948.918212890625	147.0426940917969	7.802570343017578	942.9544067382812	-79.77507019042969	102.8427124023438	506.1934814453125	-107.1670303344727	11.25214004516602	622.8179321289062	-109.4306793212891	131.7776794433594	41.26111602783203	-92.07330322265625	108.3543853759766	257.4573059082031	-109.0040588378906	292.9391784667969	75.85321807861328	-208.4498901367188	288.064208984375	61.97861480712891	-140.0887603759766	187.6556854248047	49.23318481445312	-184.0615844726562	141.6089782714844	36.09965896606445	-0.9212053418159485	26.0311222076416	497.7978820800781	222.0636749267578	99.08599853515625	760.083984375	210.6789855957031	-208.2285919189453	75.29039764404297	354.0419311523438	-26.64377784729004	387.0033874511719	262.49462890625	-54.75878524780273	36.49355316162109	210.2632598876953	-121.1013565063477	50.16877365112305	208.4715423583984	-99.47978210449219	44.1477165222168	304.5685119628906	-273.029541015625	99.27075958251953	327.7389831542969	
353	3.52	-30.43324089050293	1011.201721191406	202.0850524902344	-141.9896392822266	993.0496826171875	66.31441497802734	-83.97946166992188	1055.953735351562	131.6545104980469	105.5849914550781	1255.569580078125	-30.0851001739502	-95.44017028808594	1189.392333984375	143.1864929199219	-55.54893493652344	1456.908203125	104.0776062011719	79.87263488769531	1370.479736328125	-13.87513160705566	-52.51621246337891	1318.757446289062	202.8326568603516	-139.8699951171875	1419.077758789062	45.08816909790039	-112.9345626831055	1421.708129882812	-78.31093597412109	-185.5875701904297	1296.731323242188	-113.6975479125977	-208.9690093994141	1083.857421875	-122.3641204833984	-183.8003997802734	1075.364501953125	-16.57017135620117	-137.3340454101562	831.0040893554688	-133.1060791015625	-222.8061370849609	832.6076049804688	-125.1472244262695	-217.0378723144531	974.2588500976562	-133.7855072021484	-145.5098419189453	642.996337890625	-114.8002777099609	-211.4922027587891	747.9896850585938	-139.0277557373047	-139.8502807617188	744.54541015625	-144.9148559570312	107.1504440307617	1421.818115234375	193.5266876220703	141.8092346191406	1352.611938476562	247.1639099121094	165.6724395751953	1089.340087890625	291.6118469238281	120.2879867553711	1063.268920898438	206.082763671875	287.3954772949219	865.6331787109375	147.6001586914062	273.5823669433594	838.6865234375	229.4080963134766	193.5110321044922	1010.099975585938	284.7645874023438	321.207275390625	683.2685546875	112.0291366577148	324.2020263671875	773.285888671875	121.2378768920898	318.9892578125	760.9013671875	197.1408081054688	55.06774520874023	1619.143798828125	139.7297668457031	34.95962142944336	1681.378295898438	-72.51130676269531	137.5738677978516	1674.990844726562	0.2390991896390915	-61.85889434814453	1632.661743164062	68.95595550537109	-106.6883850097656	931.2655029296875	-69.0252685546875	66.09207916259766	939.9728393554688	228.8286590576172	155.4863891601562	949.2572631835938	139.1727600097656	14.60363864898682	943.7040405273438	-86.83724212646484	109.7641830444336	506.38720703125	-112.1629257202148	18.61375045776367	623.4312744140625	-114.8910751342773	132.9649200439453	41.32893371582031	-92.73413848876953	113.2349472045898	257.0115051269531	-112.3913116455078	296.0259704589844	69.98421478271484	-209.3093109130859	290.2696533203125	57.77146530151367	-140.5839233398438	189.5387115478516	47.16197967529297	-184.6728820800781	142.3205108642578	37.03559112548828	-1.474419474601746	36.45176696777344	497.3496704101562	214.5552062988281	107.7349700927734	760.0615844726562	202.9209289550781	-205.2204437255859	80.46643829345703	353.7275390625	-17.52774047851562	387.6305847167969	256.9697875976562	-55.08310317993164	36.43170928955078	210.4100799560547	-120.2479858398438	50.97008895874023	208.3468170166016	-98.16990661621094	44.61093521118164	304.30712890625	-268.9435729980469	106.4449691772461	326.9917602539062	
